PathFileType	4	(X/Y/Z)	C:\Users\WrightLab\Desktop\Jo\P4V115.trc
DataRate	CameraRate	NumFrames	NumMarkers	Units	OrigDataRate	OrigDataStartFrame	OrigNumFrames
100.00	100.00	       14	19	mm	100.00	239	       637
Frame#	Time	Headset_Front			Headset_Back			Headset_Left			Headset_Right			Left_Shoulder			Right_Shoulder			Sternum			C7			Left Elbow			Right Elbow			Left Wrist			Right Wrist			Left ASIS			Right ASIS			S2			Left Knee			Right Knee			Left Ankle			Right Ankle			
		X1	Y1	Z1	X2	Y2	Z2	X3	Y3	Z3	X4	Y4	Z4	X5	Y5	Z5	X6	Y6	Z6	X7	Y7	Z7	X8	Y8	Z8	X9	Y9	Z9	X10	Y10	Z10	X11	Y11	Z11	X12	Y12	Z12	X13	Y13	Z13	X14	Y14	Z14	X15	Y15	Z15	X16	Y16	Z16	X17	Y17	Z17	X18	Y18	Z18	X19	Y19	Z19	

239	2.380	-624.76337	1661.88831	-787.50128	-561.39172	1407.07568	-808.50031										-678.42413	1476.26086	-963.77954	-529.84320	1726.08435	-991.87750	-518.69165	1504.32141	-968.29712	-253.02699	1116.40063	-833.99426	-839.36816	1135.73987	-961.06104	-317.65756	832.69922	-715.20459	-842.41730	979.84833	-702.71832	-444.80759	964.87708	-780.26465	-747.27991	989.66455	-921.60431				-521.26599	515.52606	-674.08405	-692.37158	512.67346	-1040.47644	-647.60059	34.78353	-565.40411				
240	2.390				-562.23090	1405.83875	-797.99292										-680.01965	1475.19189	-952.71826	-530.94617	1724.81860	-982.00641	-520.21161	1502.96375	-958.19177	-254.70795	1114.05334	-825.70374	-841.38885	1135.06116	-948.24963	-318.82648	830.92511	-706.97839	-841.89594	979.14197	-690.01715	-448.00900	963.65912	-769.78589	-750.11401	988.43274	-909.28217				-523.19537	514.92596	-662.73883	-696.27655	512.29614	-1031.22046	-647.58783	32.66003	-558.47241				
241	2.400	-626.28717	1660.37256	-767.78320	-563.18921	1405.68530	-787.35236										-681.33899	1474.53076	-941.84454	-531.93182	1723.70691	-971.94769	-521.54083	1501.72107	-947.76099	-256.52438	1112.47266	-816.86017	-842.90820	1134.40295	-935.48859	-320.10953	828.44781	-699.36499	-841.33020	980.00452	-675.71350	-449.86465	962.13525	-758.51373	-753.38666	988.52631	-897.49695				-525.27649	515.05707	-652.08588	-700.98273	512.20496	-1021.31946	-646.72711	29.31552	-553.68024				
242	2.410				-564.30267	1405.28577	-776.64447										-682.56860	1473.91345	-930.17572	-532.69128	1722.94470	-962.05933	-522.68750	1500.95178	-937.28851	-258.18793	1111.10498	-807.37610	-844.51306	1133.97766	-922.52466	-321.00220	826.70282	-689.89282	-841.88495	980.79187	-662.94037	-451.72470	961.72711	-748.59241	-755.88800	987.86237	-885.16730				-526.25824	515.31342	-639.15216	-705.40533	512.63446	-1011.58130	-645.34930	28.47966	-551.41315				
243	2.420	-417.75232	1598.18567	-616.81238	-564.16949	1405.24377	-765.52985										-683.44470	1473.64417	-919.28711	-533.36084	1722.39832	-952.42664	-523.68140	1500.52686	-927.21680	-259.51990	1110.12854	-799.21716	-845.82025	1134.24438	-910.10223	-321.81964	825.28748	-680.98883	-841.42487	981.46021	-650.41223	-454.52469	961.46649	-737.43268	-759.33112	987.74585	-871.84436				-527.88745	515.56134	-628.03101	-710.58490	513.66003	-1000.97314	-648.62976	26.84617	-551.51898				
244	2.430	-627.51581	1660.44653	-736.51379	-564.72638	1405.17151	-754.32892										-684.30597	1473.68787	-907.29437	-533.92377	1722.15491	-942.26941	-524.41302	1500.25781	-916.48981	-260.70551	1109.42383	-789.97198	-846.74207	1133.99963	-897.02271	-322.71222	824.28778	-672.79504	-840.98792	980.67181	-637.58575	-456.01904	961.71460	-724.91486	-762.48859	987.50287	-857.61322				-529.05389	515.85559	-616.53204	-715.53455	513.93652	-989.74835	-650.96783	25.70207	-550.48505				
245	2.440	-392.19711	1460.83203	-799.95905	-564.04474	1406.73022	-743.33881										-684.79437	1473.79199	-896.03027	-534.47089	1722.12817	-931.98474	-525.05994	1499.85950	-905.49542	-261.95972	1108.65369	-780.94348	-847.36151	1134.51611	-883.81061	-323.18588	823.05023	-664.06946	-840.42676	980.05688	-624.59076	-458.31030	961.94940	-713.85284	-765.88580	988.57495	-843.66699				-529.74872	515.04742	-605.52228	-720.95837	514.92126	-978.66974	-653.34235	28.25319	-548.14343				
246	2.450	-564.28900	1407.48315	-731.74017	-391.90277	1461.73865	-791.88470										-685.54224	1475.08154	-884.50641	-534.82245	1722.86816	-921.63708	-525.22656	1500.50720	-894.93762	-263.19833	1108.20190	-771.04797	-848.08154	1135.42334	-871.09100	-324.18369	822.70648	-655.28601	-839.57855	980.96637	-613.30872	-460.89938	963.76495	-702.84619	-768.48578	989.19025	-829.19354				-529.00183	514.83673	-594.46954	-727.85718	516.64703	-966.63495	-655.26678	30.52249	-546.10803				
247	2.460	-392.22723	1462.30383	-780.48932	-563.34351	1408.13806	-720.15027										-685.90613	1475.71082	-873.13562	-535.08368	1724.12000	-910.67438	-525.46515	1501.07532	-884.34302	-264.11725	1108.12598	-760.75244	-848.51971	1136.41052	-858.51733	-325.27972	821.99762	-645.20660	-839.46289	981.22119	-600.16522	-461.69669	964.66748	-690.02466	-770.41913	989.47882	-813.70941				-529.68951	513.99200	-586.10840	-734.26312	517.62714	-953.35352	-656.94476	32.93100	-544.11414				
248	2.470	-391.77911	1462.48376	-767.16730	-562.36432	1410.02588	-708.36053										-685.84882	1477.22534	-861.42279	-535.33148	1725.63110	-900.34174	-525.64374	1502.02673	-873.36816	-265.64438	1108.51074	-751.50494	-848.26904	1137.34900	-844.63928	-325.62009	822.59656	-636.62878	-838.72308	980.32458	-588.45355	-463.27908	965.90326	-678.43683	-771.97028	991.71381	-798.99823				-530.98151	512.64014	-576.13428	-742.36554	520.60901	-939.31110	-659.05872	33.20817	-542.08911				
249	2.480	-626.84955	1665.97534	-682.94080	-391.01758	1464.39087	-759.27869										-685.93060	1478.58228	-849.86188	-535.55304	1727.17505	-889.69983	-525.79236	1502.90491	-862.40033	-266.11945	1109.92615	-741.57184	-848.26489	1138.73315	-832.17651	-326.39526	823.17413	-627.44916	-838.11047	980.13025	-576.51794	-463.57843	967.54767	-667.13019	-775.56824	993.09949	-783.43188				-531.21753	512.34796	-566.81165	-750.02405	522.42010	-923.88599	-658.87762	35.43943	-538.94006				
250	2.490	-626.31897	1667.24231	-672.07483	-561.71979	1415.59045	-685.53424										-686.46808	1480.45105	-838.27948	-535.63983	1728.99683	-879.11053	-525.85101	1504.07520	-851.53284	-266.94855	1111.34497	-731.41168	-847.62659	1140.94739	-819.71570	-327.20538	824.06799	-617.72729	-837.78802	980.55994	-565.10596	-464.39020	968.53076	-655.67865	-776.83203	995.27014	-768.52075				-531.97595	512.53357	-558.83923	-759.30359	524.73340	-907.52594	-658.83551	36.15546	-537.26978				
251	2.500	-391.22583	1468.52490	-740.56824	-560.47095	1417.89478	-674.14063										-685.54901	1482.49622	-826.60577	-535.78174	1730.77136	-868.41650	-525.91626	1505.45837	-840.83020	-268.09564	1112.47266	-720.52771	-847.17657	1142.68286	-806.56805	-327.27365	825.14142	-607.90613	-837.72144	980.05719	-553.77222	-463.52164	970.44116	-643.93591	-777.11890	995.94360	-753.24255				-531.35748	513.19702	-550.06158	-767.17535	525.44781	-889.26202	-658.35687	36.74265	-536.37512				
252	2.510	-390.49319	1470.55115	-732.29578	-560.25903	1420.48438	-662.20728										-686.19299	1483.83850	-814.55994	-535.97565	1732.52307	-857.91919	-526.22998	1506.74988	-830.12701	-268.35486	1114.53333	-709.77277	-847.02118	1144.72559	-793.81390	-328.02707	826.81799	-598.60168	-836.71777	979.42383	-541.50769	-463.63052	971.85645	-632.83966	-778.04437	997.19995	-738.21912				-532.10669	512.53674	-542.10455	-776.22180	526.34137	-869.94934	-659.15967	37.20956	-532.97540				
